<svg width="22" height="23" viewBox="0 0 22 23" fill="none" xmlns="http://www.w3.org/2000/svg">
<path d="M11 0.796875C8.01256 0.796875 7.63715 0.809949 6.46422 0.863177C5.29408 0.915471 4.49469 1.10224 3.79429 1.37491C3.07055 1.65506 2.457 2.03139 1.84625 2.64305C1.23364 3.25564 0.858222 3.86916 0.576195 4.59101C0.30444 5.29138 0.118601 6.0898 0.0663045 7.26082C0.0121403 8.4337 0 8.81003 0 11.7964C0 14.7846 0.0130742 15.1591 0.0663045 16.332C0.118601 17.5021 0.30444 18.3033 0.576195 19.0018C0.858222 19.7255 1.23364 20.339 1.84625 20.9498C2.457 21.5624 3.07055 21.9378 3.79429 22.2198C4.49469 22.4915 5.29315 22.6773 6.46422 22.7315C7.63715 22.7838 8.0135 22.7969 11 22.7969C13.9865 22.7969 14.3628 22.7838 15.5358 22.7315C16.7059 22.6773 17.5053 22.4924 18.2057 22.2198C18.9295 21.9378 19.543 21.5624 20.1537 20.9498C20.7664 20.339 21.1418 19.7255 21.4238 19.0018C21.6956 18.3033 21.8814 17.503 21.9337 16.332C21.9879 15.1591 22 14.7846 22 11.7964C22 8.8091 21.9869 8.4337 21.9337 7.26082C21.8814 6.09073 21.6956 5.29138 21.4238 4.59101C21.1418 3.86823 20.7664 3.2547 20.1537 2.64305C19.543 2.03046 18.9295 1.65506 18.2057 1.37491C17.5053 1.10317 16.7069 0.915471 15.5358 0.863177C14.3628 0.809015 13.9865 0.796875 11 0.796875ZM11 2.77939C13.9379 2.77939 14.2844 2.79059 15.4452 2.84289C16.5182 2.89238 17.1 3.07074 17.4885 3.22109C18.0012 3.42093 18.3673 3.65905 18.7529 4.04472C19.1386 4.43039 19.3768 4.79552 19.5766 5.31006C19.727 5.69666 19.9072 6.27937 19.9548 7.35233C20.009 8.51308 20.0183 8.86046 20.0183 11.7973C20.0183 14.7342 20.0081 15.0835 19.9548 16.2424C19.9063 17.3153 19.727 17.8971 19.5766 18.2856C19.3768 18.7982 19.1386 19.1652 18.7529 19.55C18.3673 19.9356 18.0021 20.1738 17.4885 20.3736C17.1 20.5239 16.5182 20.7042 15.4452 20.7518C14.2844 20.806 13.937 20.8172 11 20.8172C8.06299 20.8172 7.71373 20.806 6.5548 20.7518C5.48179 20.7032 4.89999 20.5239 4.5115 20.3736C3.99881 20.1738 3.63274 19.9356 3.24705 19.55C2.86136 19.1662 2.62323 18.7992 2.42338 18.2856C2.27303 17.8971 2.09279 17.3153 2.04517 16.2424C1.991 15.0835 1.98166 14.7342 1.98166 11.7973C1.98166 8.86046 1.99193 8.51308 2.04517 7.35233C2.09373 6.27937 2.27303 5.69759 2.42338 5.31006C2.62323 4.79552 2.86136 4.43039 3.24705 4.04472C3.63274 3.65905 3.99788 3.42093 4.5115 3.22109C4.89999 3.07074 5.48179 2.89238 6.5548 2.84289C7.7156 2.79059 8.06299 2.77939 11 2.77939Z" fill="black"/>
<path d="M10.9999 15.4643C8.97533 15.4643 7.33266 13.8217 7.33266 11.7971C7.33266 9.77261 8.97533 8.13095 10.9999 8.13095C13.0246 8.13095 14.6672 9.77168 14.6672 11.7971C14.6672 13.8226 13.0246 15.4643 10.9999 15.4643ZM10.9999 6.14844C7.8799 6.14844 5.35193 8.67817 5.35193 11.7962C5.35193 14.9161 7.8799 17.4459 10.9999 17.4459C14.12 17.4459 16.648 14.9161 16.648 11.7962C16.648 8.67724 14.12 6.14844 10.9999 6.14844Z" fill="black"/>
<path d="M18.1927 5.92541C18.1927 6.65379 17.6015 7.24584 16.8722 7.24584C16.1437 7.24584 15.5526 6.65379 15.5526 5.92541C15.5526 5.19703 16.1437 4.60498 16.8722 4.60498C17.6015 4.60498 18.1927 5.19703 18.1927 5.92541Z" fill="black"/>
</svg>
